<svg xmlns="http://www.w3.org/2000/svg" viewBox="0 0 1440 320">
    <path fill="#ffffff" fill-opacity="1" 
        d="M0,128L34.3,138.7C68.6,149,137,171,206,160C274.3,149,343,107,411,112C480,117,
        549,171,617,192C685.7,213,754,203,823,170.7C891.4,139,960,85,1029,74.7C1097.1,64,1166,96,1234,
        117.3C1302.9,139,1371,149,1406,154.7L1440,160L1440,320L1405.7,320C1371.4,320,1303,320,1234,320C1165.7,320,
        1097,320,1029,320C960,320,891,320,823,320C754.3,320,686,320,617,320C548.6,320,480,320,411,320C342.9,320,
        274,320,206,320C137.1,320,69,320,34,320L0,320Z">
    </path>
</svg>